<svg width="88" height="12" viewBox="0 0 88 12" fill="none" xmlns="http://www.w3.org/2000/svg">
<path d="M30.0802 2.34172C30.158 2.17681 30.2188 1.98889 30.2594 1.78669L31.3056 1.86758L31.738 1.27664C31.9784 1.43398 32.0615 2.2174 32.6111 1.66326L32.8649 1.28048L35.0046 1.44592L35.333 0.916305C36.0386 0.748854 36.804 1.03003 37.5626 0.949935L37.8664 0.460037L41.3984 0.733128L41.8382 0.15662L42.4203 0.839925L43.0049 0.149723L49.0934 0.620487L49.5031 0L61.3576 0.91659L61.7874 1.69906L62.5909 1.0813L64.6206 1.23823L64.9849 1.79368C65.4619 2.27455 65.886 1.37769 66.3771 1.27691L66.7779 1.96004L69.5468 2.17414L69.9398 1.59397L70.1879 2.07108C70.235 2.07473 70.2702 2.24395 70.3173 2.2476L76.0206 2.68856L76.4896 3.48794L77.1989 2.84902L78.5836 2.95607L78.8845 3.53439L79.97 3.61832L80.3462 3.06463L80.7088 3.70318L81.4088 3.75731L81.8096 3.1639L82.4261 4.37707C82.8313 4.54719 83.2049 4.75642 83.5476 3.95043L85.3648 4.09093L85.7199 4.71501C86.1023 4.86945 86.5106 4.60964 86.9563 5.07423L86.6158 5.76947L88 7.16688C86.9422 7.54297 82.5348 7.29933 78.7516 6.65994L78.4964 6.15454L77.403 6.06999L77.0185 6.63695L74.8708 6.47091L74.5166 5.8191L74.1638 6.38844C73.6696 6.41278 73.1755 6.37456 72.6849 6.27409L72.3994 5.7109L70.5663 5.56918L70.1835 6.06686L68.7988 5.95982C68.6563 5.71578 68.4851 5.52963 68.2977 5.41443C68.1098 5.29924 67.91 5.25778 67.712 5.29299L67.3033 5.8858L65.1794 5.72158L64.7618 6.35527L62.2525 6.16125L61.9894 6.59883C61.9423 6.59517 61.8908 6.75771 61.8438 6.75406L50.406 5.86971L49.8995 6.57984L49.2087 5.83266C49.0411 5.70252 48.8532 5.67926 48.6768 5.76693C48.5008 5.85461 48.3472 6.04773 48.2434 6.31302L38.9215 5.59227L38.4803 6.22415L37.0564 6.11406L36.7018 5.47616C36.5876 5.42229 36.467 5.42834 36.3547 5.49362C36.2425 5.5589 36.1435 5.68055 36.0701 5.84356C35.7663 6.33347 35.5396 5.9413 35.2931 5.39497L34.8785 5.90403L33.8873 5.8274L33.4225 6.4575L30.6063 6.23975L30.165 6.87167L26.6016 6.59614L26.1917 7.23045L22.9587 6.98047L22.6378 7.5246L21.5758 7.44245L21.1107 8.08642L20.8172 7.52257L19.3148 7.40639L18.9536 7.989L17.1521 7.84972L16.807 8.41965L14.6752 8.2548L14.2575 8.88855L12.818 8.77725L12.505 9.32197L11.0497 9.2094C10.8937 9.46102 10.811 9.62107 10.7132 9.75232C10.4272 10.1603 10.0018 9.5169 9.73425 10.1344C9.46678 10.7521 9.18394 10.3972 8.93939 10.406C8.69484 10.4149 8.47528 10.3701 8.28577 10.7023C7.95432 11.3566 7.30523 10.5156 7.04352 11.536L5.22636 11.3955L4.83375 10.6991C4.75301 11.0953 4.67298 11.4637 4.58471 11.8453C4.17997 12.0358 3.755 12.0505 3.34624 11.8884L3.1329 10.637L2.71013 11.1593L2.36131 10.6051L1.96966 11.1436L0.868358 11.0585L0.0127241 9.3273C-0.0200046 8.8611 0.0106238 8.38792 0.102077 7.9467L1.27417 8.0373L1.63907 8.57887L3.10223 8.69205L3.42239 8.17567L4.46864 8.2566L4.902 7.62405L5.94823 7.7049L6.36588 7.07124L8.15157 7.2093L8.48813 6.66643L9.56582 6.74976L9.94382 6.12684L10.9428 6.20408L11.447 5.57703L13.0832 5.70354L14.447 4.42144L16.8069 4.60391L17.2163 3.98342L20.0876 4.20542C20.1779 4.05978 20.2682 3.91415 20.4166 3.64812L22.218 3.7874L22.6203 3.13858L24.4138 3.27726L24.8161 2.62848L26.9715 2.79514L27.3248 2.21194L29.0869 2.34817L29.5038 1.74216C29.6578 1.98628 29.8305 2.19114 30.0169 2.35072C30.0791 2.70241 29.9959 3.19549 30.3606 2.79354C30.2826 2.61568 30.1877 2.46284 30.0802 2.34172Z" fill="#ADC9A6"/>
</svg>
